# xmcd CD database file
# Copyright (C) 1993-2000  Ti Kan
#
# Track frame offsets:
#	225
#	15466
#	28354
#	77798
#	90752
#	102065
#	113723
#	129648
#	147761
#	161791
#	186496
#	201145
#	217716
#	232145
#	243168
#	255146
#	269215
#	281783
#
# Disc length: 3953 seconds
#
# Revision: 1
# Processed by: cddbd v1.5.1PL2 Copyright (c) Steve Scherf et al.
# Submitted via: xmcd 2.6 PL0
#
DISCID=fa0f6e12
DTITLE=Canned Heat - House Of Blue Lights
DYEAR=1900
DGENRE=
TTITLE0=On The Road Again
TTITLE1=Same All Over
TTITLE2=When Things Go Wrong
TTITLE3=Going Up To The Country
TTITLE4=Can't Hold On
TTITLE5=Straight Ahead
TTITLE6=House Of Blue Lights
TTITLE7=Just Got To Be There
TTITLE8=You Just Got To Rock
TTITLE9=Human Condition
TTITLE10=She's Lookin' Good
TTITLE11=Open Up Your Back Door
TTITLE12=Wrapped Up
TTITLE13=Spoonful
TTITLE14=I've Got My Mojo Working
TTITLE15=Louise (Louise Blues)
TTITLE16=Strut My Stuff
TTITLE17=Hot Honey
EXTD=
EXTT0=
EXTT1=
EXTT2=
EXTT3=
EXTT4=
EXTT5=
EXTT6=
EXTT7=
EXTT8=
EXTT9=
EXTT10=
EXTT11=
EXTT12=
EXTT13=
EXTT14=
EXTT15=
EXTT16=
EXTT17=
PLAYORDER=
